<?xml version="1.0" standalone="no"?>
<!DOCTYPE svg PUBLIC "-//W3C//DTD SVG 20010904//EN"
 "http://www.w3.org/TR/2001/REC-SVG-20010904/DTD/svg10.dtd">
<svg version="1.0" xmlns="http://www.w3.org/2000/svg"
 width="900.000000pt" height="900.000000pt" viewBox="0 0 900.000000 900.000000"
 preserveAspectRatio="xMidYMid meet">
<metadata>
Created by potrace 1.16, written by Peter Selinger 2001-2019
</metadata>
<g transform="translate(0.000000,900.000000) scale(0.100000,-0.100000)"
fill="#a8854b" stroke="none">
<path d="M2983 8100 c-40 -4 -94 -13 -120 -19 -27 -6 -77 -15 -113 -22 -389
-66 -798 -470 -931 -919 -110 -372 -56 -935 125 -1299 53 -107 171 -319 195
-350 14 -19 44 -58 66 -86 22 -29 66 -86 97 -127 59 -77 322 -340 393 -393 71
-53 189 -148 243 -196 28 -26 78 -62 110 -80 31 -19 97 -69 146 -114 49 -44
117 -102 151 -130 194 -154 262 -214 351 -309 55 -58 103 -106 107 -106 5 0
21 -13 36 -29 53 -57 110 -52 123 10 9 44 -15 85 -185 311 -203 271 -265 385
-343 631 -25 78 -61 194 -81 257 -46 143 -106 283 -166 388 -26 44 -57 104
-70 135 -27 59 -232 375 -307 472 -26 33 -70 93 -99 133 -28 39 -82 109 -120
155 -521 621 -492 1083 86 1403 337 186 842 128 1203 -139 116 -86 289 -259
349 -349 99 -146 200 -125 127 27 -218 458 -856 804 -1373 745z m-939 -1052
c3 -13 8 -41 11 -63 6 -38 83 -200 162 -345 47 -84 176 -271 229 -329 23 -25
81 -98 129 -161 49 -63 107 -137 130 -165 114 -137 259 -375 240 -393 -8 -8
-98 83 -148 148 -136 177 -198 255 -271 335 -85 93 -140 161 -168 206 -9 15
-39 52 -66 83 -157 179 -306 543 -277 676 8 35 23 39 29 8z m28 -816 c18 -16
67 -46 108 -67 129 -67 381 -366 308 -365 -90 1 -301 170 -398 318 -87 133
-95 180 -18 114z m208 -484 c41 -28 153 -90 250 -136 232 -113 305 -169 346
-267 28 -68 -65 -55 -218 31 -55 31 -129 69 -166 86 -124 56 -377 338 -304
338 11 0 52 -23 92 -52z m401 -537 c189 -67 325 -146 407 -236 155 -169 260
-335 212 -335 -20 0 -119 62 -172 108 -50 43 -90 75 -267 212 -92 71 -261 236
-261 255 0 20 16 19 81 -4z M5690 8079 c-178 -31 -390 -108 -474 -173 -17 -13
-62 -42 -101 -66 -275 -168 -576 -610 -415 -610 19 0 28 10 139 151 192 243
482 437 756 506 96 24 415 24 527 0 217 -45 501 -244 613 -429 118 -195 190
-359 206 -472 4 -34 15 -94 24 -134 17 -82 20 -324 5 -407 -5 -27 -18 -106
-29 -175 -31 -192 -161 -511 -283 -690 -24 -36 -56 -85 -70 -110 -96 -165
-442 -535 -687 -735 -41 -33 -94 -79 -120 -101 -25 -23 -100 -83 -166 -133
-66 -51 -171 -131 -233 -179 -62 -48 -137 -105 -166 -127 -182 -136 -298 -234
-291 -245 3 -4 -20 -27 -51 -51 -31 -24 -66 -55 -78 -68 -11 -14 -42 -46 -68
-72 -27 -27 -48 -53 -48 -58 0 -5 -12 -24 -27 -41 -77 -92 -134 -260 -98 -286
35 -26 70 7 137 130 9 17 39 58 67 91 28 32 53 67 56 77 4 9 15 20 25 23 18 6
224 179 278 233 12 12 29 22 38 22 18 0 246 160 371 261 49 39 108 82 133 97
25 14 68 44 95 67 28 23 88 71 135 106 80 60 190 152 334 278 108 95 326 313
389 390 34 40 86 101 114 134 29 33 67 84 84 113 17 30 50 80 73 111 72 96
142 238 248 503 149 372 136 979 -30 1333 -253 539 -828 840 -1412 736z M4890
7036 c-111 -30 -222 -131 -306 -277 -58 -100 -61 -102 -127 -94 -55 7 -55 7
-66 65 -36 183 -247 297 -501 270 -252 -27 -283 -70 -162 -221 169 -211 165
-279 -16 -279 -225 -1 -467 -131 -583 -315 -65 -104 1 -157 171 -136 76 9 151
-2 315 -45 171 -46 177 -50 137 -95 -189 -217 -175 -576 32 -786 91 -94 149
-77 176 52 17 84 98 173 269 298 98 71 106 66 105 -63 -1 -112 -29 -232 -95
-406 -174 -456 -275 -977 -204 -1048 9 -8 20 -48 25 -90 10 -82 74 -286 101
-327 10 -14 21 -38 25 -55 34 -137 169 -272 190 -190 6 24 -44 182 -79 251
-52 102 -94 405 -56 405 5 0 9 6 9 13 0 127 242 399 460 515 71 38 113 55 385
153 179 64 310 134 398 210 249 215 260 375 17 254 -83 -41 -192 -81 -250 -90
-25 -3 -88 -17 -140 -30 -52 -13 -133 -33 -180 -43 -254 -59 -380 -129 -587
-323 -46 -43 -88 -79 -94 -79 -32 0 47 258 140 452 62 131 100 262 127 443 3
17 7 45 10 63 7 49 30 42 151 -47 140 -103 187 -172 203 -300 21 -165 136
-152 230 27 131 247 144 434 49 669 -22 55 -4 64 142 66 145 2 189 -12 270
-88 167 -156 229 69 94 342 -73 147 -260 265 -449 282 -139 12 -147 19 -122
97 28 89 98 194 181 271 98 92 100 130 7 177 -123 62 -288 84 -402 52z m173
-127 c61 -17 60 -40 -7 -144 -18 -27 -54 -93 -81 -145 -61 -122 -62 -123 -99
-115 -17 4 -49 10 -71 14 -33 5 -43 12 -56 41 -9 19 -26 44 -38 54 -41 37 -19
99 67 189 97 102 184 134 285 106z m-907 -94 c49 -27 112 -70 139 -96 28 -26
59 -48 70 -50 27 -5 31 -63 8 -108 -24 -47 -35 -48 -82 -6 -77 70 -102 18 -57
-117 55 -163 46 -222 -26 -161 -104 90 -130 130 -197 298 -35 88 -77 178 -93
199 -55 78 -40 99 68 94 73 -4 88 -8 170 -53z m-485 -519 c-32 -52 -7 -76 120
-117 94 -30 209 -92 209 -112 0 -13 -57 -1 -255 53 -38 10 -135 29 -215 41
-193 30 -214 55 -97 116 84 45 108 51 185 52 74 1 74 1 53 -33z m1640 -17 c84
-29 253 -180 247 -222 -3 -19 -8 -22 -48 -20 -252 14 -292 14 -368 3 -116 -17
-238 -18 -254 -2 -20 20 2 45 53 60 24 7 72 26 107 42 43 21 78 30 113 30 56
0 89 13 89 35 0 21 -30 33 -81 33 -47 -1 -69 6 -69 23 0 27 146 39 211 18z
m-362 -438 c73 -38 138 -163 124 -240 -3 -19 -6 -73 -7 -120 -2 -159 -42 -181
-128 -69 -14 19 -70 67 -123 108 -211 160 -277 309 -113 254 59 -19 115 -71
197 -181 60 -82 83 -95 114 -65 20 20 20 22 3 66 -16 41 -39 75 -138 203 -45
59 -6 83 71 44z m-950 0 c12 -8 12 -13 -3 -33 -93 -128 -114 -181 -81 -208 19
-16 44 0 130 80 83 77 216 130 244 96 19 -23 -1 -50 -95 -128 -181 -150 -235
-201 -283 -268 -68 -93 -84 -92 -125 5 -45 108 -47 195 -8 280 37 78 125 171
168 178 16 2 31 5 34 5 3 1 11 -2 19 -7z m941 -1080 c0 -6 -10 -17 -22 -25
-27 -20 -102 -22 -96 -3 8 23 118 50 118 28z M5590 3432 c-32 -26 -45 -666
-16 -736 29 -69 102 -71 131 -3 21 51 16 710 -6 732 -26 26 -81 30 -109 7z
M2631 3422 c-22 -41 -60 -290 -61 -402 0 -65 -16 -184 -36 -271 -9 -42 20 -58
53 -28 39 36 53 80 54 166 1 105 13 230 23 240 18 18 66 -56 66 -103 0 -47 14
-83 36 -97 8 -4 21 -34 30 -65 37 -131 133 -110 172 38 11 41 25 93 31 115 6
22 13 57 16 78 18 121 75 -9 81 -186 7 -177 48 -277 113 -277 27 0 61 54 61
98 0 49 27 34 73 -40 35 -57 53 -61 209 -53 199 10 188 -5 188 258 0 234 -10
266 -96 307 -24 10 -45 24 -49 30 -15 24 -101 11 -161 -25 -32 -19 -61 -35
-66 -35 -4 0 -13 -18 -19 -40 -20 -66 28 -95 79 -47 26 25 102 31 123 10 28
-28 2 -60 -60 -75 -89 -23 -182 -101 -203 -170 -14 -48 -15 -48 -33 50 -9 45
-23 101 -31 124 -10 29 -15 78 -15 148 1 249 -138 379 -194 183 -9 -32 -26
-80 -37 -108 -43 -105 -47 -121 -48 -172 0 -58 -10 -71 -35 -47 -33 33 -44 60
-51 119 -4 37 -15 74 -29 95 -13 19 -26 51 -30 70 -14 73 -27 100 -55 115 -40
21 -87 19 -99 -3z m943 -488 c12 -32 6 -155 -9 -184 -29 -57 -106 -23 -120 53
-15 77 104 197 129 131z M4800 3415 c-12 -15 -15 -78 -18 -364 -3 -449 -17
-417 173 -413 176 3 225 9 232 28 11 28 -17 39 -119 46 -144 9 -133 -21 -135
355 -1 298 -2 317 -21 335 -27 28 -94 35 -112 13z M5863 3365 c-51 -22 -34
-107 24 -121 55 -14 95 74 53 116 -23 23 -34 24 -77 5z M5342 3358 c-15 -15
-16 -77 -2 -114 8 -21 7 -32 -6 -51 -20 -32 -24 -465 -4 -514 23 -56 97 -43
126 22 26 58 2 458 -28 481 -35 24 -35 42 -3 84 30 39 32 79 6 94 -26 14 -74
13 -89 -2z M4019 3240 c-15 -4 -40 -18 -57 -30 -28 -20 -34 -22 -61 -10 -40
16 -96 5 -116 -23 -27 -39 -22 -480 6 -506 92 -86 131 -23 131 207 -1 191 6
217 63 228 102 19 120 -17 121 -244 1 -190 11 -227 65 -227 50 0 60 49 59 284
0 255 1 249 -92 295 -78 38 -79 39 -119 26z M4429 3224 c-7 -8 -30 -24 -51
-35 -46 -23 -78 -80 -62 -107 16 -25 49 -26 81 -2 67 49 162 25 135 -34 -9
-20 -19 -26 -44 -26 -44 0 -108 -18 -108 -31 0 -5 -15 -19 -34 -30 -31 -18
-86 -123 -86 -163 0 -63 99 -169 158 -169 285 -1 281 -4 285 200 3 206 0 284
-12 315 -26 68 -222 130 -262 82z m121 -303 c16 -31 12 -122 -8 -161 -31 -63
-106 -43 -132 36 -26 78 103 193 140 125z M6190 3217 c-19 -13 -46 -31 -60
-39 -38 -23 -67 -82 -51 -102 20 -23 60 -20 101 9 34 24 40 25 89 14 90 -19
67 -50 -69 -91 -161 -48 -219 -221 -112 -329 79 -79 350 -68 394 15 29 54 12
352 -23 424 -56 112 -181 158 -269 99z m141 -274 c14 -36 6 -177 -11 -197 -21
-27 -94 -21 -114 9 -32 49 -16 108 47 173 48 49 64 52 78 15z M5847 3188 c-14
-11 -17 -41 -21 -213 -2 -110 -7 -212 -11 -227 -17 -68 99 -138 130 -78 26 49
25 482 0 510 -21 23 -72 27 -98 8z M5260 2369 c-132 -68 -145 -147 -42 -250
38 -38 56 -48 87 -51 35 -3 40 -6 40 -28 0 -38 -32 -38 -64 0 -32 38 -121 16
-121 -30 0 -134 263 -159 317 -30 15 35 15 35 36 -5 43 -84 124 -98 156 -28
14 31 26 29 67 -12 55 -56 166 -53 226 5 51 49 55 49 94 3 39 -46 200 -58 257
-19 23 16 32 17 53 7 42 -19 102 -14 114 9 13 25 36 26 49 1 21 -38 151 -55
214 -28 81 36 142 190 94 239 -7 7 -22 26 -32 41 -60 92 -154 115 -240 57 -67
-45 -104 -33 -91 30 7 38 -7 53 -61 61 -26 4 -66 14 -88 22 -47 18 -69 9 -96
-39 -12 -23 -24 -30 -54 -32 -41 -4 -105 -43 -132 -82 -14 -20 -15 -20 -43 11
-31 32 -42 32 -100 5 -23 -11 -25 -17 -25 -86 -1 -76 -9 -110 -27 -110 -23 0
-37 37 -38 98 0 79 -28 112 -95 112 -34 0 -44 5 -54 24 -26 47 -109 62 -152
27 -25 -20 -30 -77 -15 -176 6 -40 6 -40 -10 3 -15 40 -19 43 -75 59 -114 32
-135 99 -22 74 55 -13 58 -12 75 9 48 60 12 96 -137 135 -5 2 -35 -10 -65 -26z
m418 -269 c2 -18 0 -45 -4 -59 -10 -39 -36 26 -28 69 8 39 28 33 32 -10z m540
-7 c5 -71 -34 -109 -69 -67 -34 41 -6 117 40 112 23 -3 26 -8 29 -45z m478 35
c12 -19 5 -91 -10 -106 -27 -28 -76 14 -76 65 0 39 67 72 86 41z M2538 2362
c-18 -8 -66 -70 -92 -120 -27 -53 -45 -43 -130 67 -44 57 -79 67 -111 31 -33
-37 -43 -318 -13 -378 45 -91 108 -56 108 60 0 68 9 77 39 38 27 -37 84 -41
125 -9 30 23 31 22 40 -56 10 -83 68 -104 122 -44 23 25 40 24 59 -5 54 -83
227 -62 289 34 50 78 51 78 74 28 26 -57 67 -98 97 -98 25 0 34 10 90 98 33
53 33 53 45 17 6 -20 22 -43 36 -51 13 -9 26 -24 29 -33 16 -52 254 -54 255
-2 1 31 20 32 45 3 56 -67 95 -29 95 93 0 86 8 105 46 105 28 0 34 -17 34 -91
0 -89 20 -129 64 -129 55 0 70 22 63 97 -8 79 4 116 36 111 20 -3 22 -10 28
-91 7 -96 15 -111 66 -122 27 -5 37 -2 58 19 32 33 39 32 63 -1 20 -27 23 -28
122 -28 124 0 132 7 128 102 -1 34 1 65 5 70 14 13 27 -21 27 -72 0 -85 51
-124 96 -74 15 17 19 37 20 99 0 82 12 110 45 110 22 0 26 -16 32 -117 2 -40
10 -80 17 -88 22 -26 101 -14 122 19 5 7 18 1 36 -17 70 -67 160 -24 125 59
-36 86 -36 121 -2 156 52 55 36 118 -40 153 -53 23 -95 9 -111 -40 -15 -45
-32 -49 -77 -15 -53 41 -94 47 -136 21 -19 -12 -46 -21 -60 -21 -14 0 -38 -11
-54 -24 -27 -24 -27 -24 -81 20 -75 62 -205 39 -236 -41 -10 -26 -37 -17 -87
30 -52 49 -97 59 -135 30 -26 -19 -88 -19 -105 1 -22 26 -164 1 -204 -36 -26
-25 -44 -20 -103 31 -47 42 -95 39 -163 -7 -53 -37 -53 -37 -74 -10 -11 14
-26 26 -33 26 -25 0 -102 -64 -112 -94 -11 -31 -11 -31 -24 -1 -28 65 -103
101 -136 65 -32 -34 -40 -33 -113 27 -56 45 -154 13 -209 -69 -22 -32 -33 -16
-34 50 -2 82 -2 80 -26 96 -31 19 -60 26 -80 18z m323 -245 c21 -46 -6 -109
-44 -105 -39 4 -59 58 -39 103 16 34 68 35 83 2z"/>
</g>
</svg>
