<?xml version="1.0" standalone="no"?>
<!DOCTYPE svg PUBLIC "-//W3C//DTD SVG 20010904//EN"
 "http://www.w3.org/TR/2001/REC-SVG-20010904/DTD/svg10.dtd">
<svg version="1.0" xmlns="http://www.w3.org/2000/svg"
 width="900.000000pt" height="900.000000pt" viewBox="0 0 900.000000 900.000000"
 preserveAspectRatio="xMidYMid meet">
<metadata>
Created by potrace 1.16, written by Peter Selinger 2001-2019
</metadata>
<g transform="translate(0.000000,900.000000) scale(0.100000,-0.100000)"
fill="#a8854b" stroke="none">
<path d="M3010 8089 c-25 -6 -62 -12 -82 -16 -21 -3 -42 -11 -49 -19 -8 -10
-38 -14 -111 -14 -93 0 -100 -1 -122 -25 -17 -19 -38 -27 -75 -32 -45 -5 -51
-9 -51 -29 0 -20 -6 -23 -54 -29 -49 -6 -56 -10 -65 -36 -7 -21 -16 -29 -34
-29 -18 0 -27 -7 -31 -24 -3 -14 -16 -28 -29 -32 -42 -13 -226 -182 -220 -201
3 -7 -7 -19 -21 -28 -14 -9 -26 -28 -28 -43 -2 -18 -10 -28 -28 -32 -19 -5
-26 -15 -35 -55 -7 -36 -16 -53 -33 -60 -13 -6 -22 -19 -22 -32 0 -32 -18 -75
-41 -96 -13 -12 -19 -32 -20 -65 -2 -76 -12 -107 -35 -110 -20 -3 -21 -10 -27
-175 -7 -197 2 -617 14 -617 4 0 11 -10 15 -22 4 -13 10 -25 15 -28 5 -3 12
-45 15 -93 5 -59 11 -87 19 -87 11 0 21 -14 30 -40 1 -3 5 -12 8 -20 4 -8 8
-37 9 -65 3 -43 6 -50 26 -53 12 -2 22 -9 23 -15 2 -36 11 -63 24 -73 8 -6 12
-14 9 -17 -3 -3 4 -10 15 -17 15 -8 21 -20 21 -46 0 -45 16 -74 40 -74 16 0
20 -7 20 -30 0 -30 5 -39 42 -80 9 -10 18 -29 20 -41 2 -15 12 -25 28 -29 17
-4 26 -14 28 -30 2 -13 14 -32 27 -42 13 -10 27 -27 30 -38 4 -11 13 -20 20
-20 8 0 17 -11 21 -25 3 -14 10 -25 15 -25 5 0 9 -4 9 -10 0 -15 33 -50 47
-50 7 0 13 -11 13 -25 0 -20 6 -27 29 -31 23 -5 31 -12 33 -33 2 -20 9 -27 31
-29 18 -2 27 -9 27 -21 0 -22 19 -41 41 -41 12 0 19 -9 21 -27 2 -22 9 -29 31
-31 15 -2 27 -9 27 -18 0 -8 7 -14 15 -14 8 0 15 -7 15 -15 0 -8 5 -15 10 -15
11 0 26 -11 58 -41 9 -9 29 -19 44 -23 18 -4 30 -15 34 -31 4 -16 14 -25 32
-27 21 -2 28 -9 30 -30 3 -23 8 -28 31 -28 24 0 30 -5 35 -30 4 -23 11 -30 30
-30 13 0 38 -13 55 -29 18 -17 44 -31 59 -33 21 -2 28 -9 30 -30 3 -23 8 -28
32 -28 24 0 29 -5 32 -27 2 -22 9 -29 30 -31 15 -2 38 -16 50 -31 13 -15 38
-36 56 -46 17 -11 32 -23 32 -28 0 -4 14 -13 30 -19 19 -6 32 -19 36 -34 4
-14 14 -24 23 -24 22 0 41 -19 41 -42 0 -13 8 -18 26 -18 19 0 28 -7 35 -30 7
-19 18 -30 30 -30 18 0 119 -95 119 -112 0 -4 5 -8 11 -8 16 0 75 -62 83 -88
4 -12 18 -25 32 -28 18 -5 24 -13 24 -34 0 -26 3 -28 43 -31 67 -6 77 -1 77
32 0 16 -6 32 -14 35 -8 3 -17 16 -20 30 -4 13 -11 24 -16 24 -6 0 -10 13 -10
29 0 25 -4 30 -27 33 -22 2 -29 9 -31 32 -2 17 -11 30 -22 33 -10 3 -23 18
-29 34 -5 16 -17 32 -26 35 -8 3 -15 12 -15 19 0 7 -7 15 -15 19 -9 3 -15 18
-15 36 0 25 -4 30 -25 30 -20 0 -27 6 -31 29 -4 20 -14 31 -29 35 -19 5 -25
15 -32 58 -7 44 -12 54 -30 56 -23 3 -27 12 -37 73 -5 25 -14 39 -31 47 -21
10 -25 18 -25 56 0 36 -5 48 -26 63 -23 17 -27 28 -33 99 -5 70 -8 79 -27 82
-17 2 -23 12 -28 49 -3 25 -6 67 -6 93 0 39 -5 52 -30 76 -26 25 -29 36 -30
86 0 47 -3 58 -19 63 -22 7 -41 53 -41 97 0 16 -6 31 -15 34 -8 4 -15 13 -15
20 0 8 -7 17 -15 20 -8 4 -15 17 -15 31 0 13 -11 34 -26 46 -16 14 -27 36 -31
63 -4 28 -11 43 -27 50 -15 6 -24 24 -31 59 -9 40 -15 51 -33 53 -14 2 -24 13
-28 30 -4 15 -12 32 -18 37 -20 18 -44 61 -48 86 -2 16 -10 25 -26 27 -16 3
-25 12 -29 32 -3 16 -16 36 -29 44 -14 10 -26 31 -31 58 -7 37 -12 43 -36 46
-22 3 -27 8 -27 32 0 22 -5 29 -22 32 -15 2 -26 14 -33 33 -5 16 -22 42 -36
58 -15 16 -30 42 -33 58 -4 23 -11 29 -31 29 -21 0 -25 5 -25 30 0 24 -4 30
-21 30 -14 0 -24 10 -32 30 -6 17 -17 30 -23 30 -22 0 -44 31 -44 61 0 20 -5
29 -16 29 -8 0 -12 5 -9 11 4 6 -2 13 -14 16 -14 4 -21 13 -21 30 0 15 -10 33
-25 45 -16 12 -27 34 -31 60 -5 28 -13 42 -29 48 -22 8 -35 44 -35 96 0 14 -6
24 -14 24 -26 0 -37 30 -47 127 -5 54 -13 99 -19 101 -17 6 -12 119 5 126 11
4 15 22 15 73 0 88 6 108 36 122 15 6 24 19 24 33 0 43 12 68 36 74 15 4 24
14 26 32 2 21 9 28 31 30 23 3 27 8 27 33 0 26 3 29 30 29 24 0 30 4 30 21 0
13 11 25 33 34 17 8 45 25 61 39 17 15 41 26 58 26 21 0 28 5 28 20 0 23 35
40 83 40 24 0 35 6 42 22 12 27 40 36 125 37 36 1 81 8 100 14 19 7 60 14 90
16 30 1 57 4 61 6 3 2 39 -5 80 -15 44 -12 108 -20 159 -20 107 0 160 -14 160
-40 0 -14 7 -20 24 -20 52 0 88 -13 96 -35 7 -18 18 -23 60 -27 29 -3 55 -9
59 -15 10 -15 81 -66 81 -58 0 3 7 0 15 -9 8 -8 15 -19 15 -25 0 -6 9 -11 19
-11 35 0 51 -12 51 -36 0 -20 5 -24 30 -24 27 0 30 -3 30 -30 0 -27 3 -30 30
-30 27 0 30 -3 30 -30 0 -27 3 -30 30 -30 25 0 30 -4 30 -26 0 -19 7 -28 30
-35 22 -8 30 -17 30 -35 0 -17 6 -24 19 -24 26 0 34 -15 41 -70 4 -39 8 -45
30 -48 18 -2 29 -12 37 -33 10 -27 14 -29 32 -19 17 9 21 20 21 60 0 46 -2 50
-25 50 -25 0 -29 10 -37 90 -2 19 -10 26 -30 28 -24 3 -28 8 -28 33 0 21 -5
29 -18 29 -18 0 -35 24 -47 68 -4 12 -10 20 -15 17 -5 -3 -11 4 -15 15 -4 13
-18 23 -36 27 -19 4 -35 16 -45 34 -8 16 -19 29 -25 29 -14 0 -39 26 -39 39 0
6 -9 11 -21 11 -14 0 -24 10 -32 30 -8 20 -19 30 -36 32 -17 2 -27 11 -31 28
-4 18 -13 26 -33 28 -15 2 -27 8 -27 13 0 5 -7 9 -15 9 -8 0 -23 9 -32 20 -10
11 -27 20 -39 20 -28 0 -84 31 -84 46 0 6 -27 14 -60 18 -52 6 -62 11 -70 32
-9 23 -14 24 -90 24 -59 0 -86 4 -96 15 -9 8 -33 15 -54 15 -21 0 -40 5 -42
10 -5 15 -193 21 -248 9z m-940 -924 c0 -41 4 -76 8 -79 5 -3 12 -45 15 -93 4
-53 11 -92 19 -98 25 -19 48 -64 48 -94 0 -16 7 -36 15 -45 8 -8 15 -19 15
-25 0 -6 7 -11 15 -11 10 0 15 -10 15 -30 0 -16 6 -33 13 -37 21 -14 47 -61
47 -88 0 -17 5 -25 18 -25 23 0 42 -19 42 -41 0 -9 11 -24 24 -33 16 -10 28
-30 33 -58 5 -24 14 -44 21 -44 7 -1 19 -2 27 -3 10 -1 15 -11 15 -30 0 -25 4
-30 28 -33 21 -2 28 -9 30 -30 2 -18 11 -28 27 -32 16 -4 27 -16 31 -34 4 -15
20 -40 36 -56 15 -17 28 -37 28 -46 0 -21 20 -40 42 -40 13 0 18 -8 18 -30 0
-23 4 -30 20 -30 17 0 49 -39 39 -49 -2 -2 5 -9 16 -15 27 -15 33 -24 45 -67
6 -23 19 -40 35 -47 17 -8 25 -20 25 -36 0 -18 6 -25 22 -28 19 -2 24 -13 33
-58 9 -45 14 -56 32 -58 17 -3 24 -12 29 -40 10 -63 15 -72 40 -78 18 -5 24
-13 24 -35 0 -15 6 -32 13 -36 24 -14 47 -57 47 -85 0 -18 5 -28 14 -28 27 0
46 -30 46 -75 0 -38 3 -44 23 -47 23 -3 37 -42 20 -59 -18 -18 -43 2 -43 32 0
24 -4 29 -24 29 -19 0 -26 7 -31 30 -3 16 -15 32 -25 35 -19 6 -40 53 -40 91
0 17 -6 23 -27 26 -22 2 -29 9 -31 30 -2 20 -10 30 -27 34 -23 6 -35 29 -35
72 0 17 -9 27 -30 35 -20 8 -30 19 -32 37 -2 19 -10 26 -30 28 -24 3 -28 8
-28 33 0 23 -4 29 -21 29 -13 0 -23 10 -30 29 -6 16 -21 36 -33 44 -12 8 -28
33 -34 56 -9 30 -19 42 -37 47 -19 5 -25 13 -25 35 0 24 -4 29 -24 29 -19 0
-26 7 -31 30 -5 23 -12 30 -31 30 -19 0 -26 6 -30 29 -4 20 -14 31 -30 35 -14
4 -26 16 -30 30 -3 14 -16 27 -29 30 -17 4 -25 15 -30 44 -4 26 -15 43 -35 57
-21 14 -30 28 -30 47 0 22 -5 27 -27 30 -22 2 -29 9 -31 31 -3 21 -9 27 -27
27 -25 0 -29 7 -40 72 -4 29 -12 39 -30 44 -18 4 -25 14 -27 37 -2 21 -9 33
-23 37 -22 6 -25 12 -35 82 -4 33 -15 55 -33 72 -23 21 -27 33 -27 81 0 43 -3
55 -16 55 -28 0 -44 63 -43 172 0 138 8 180 37 193 12 5 22 18 22 27 0 11 5
15 15 12 11 -5 15 -24 15 -79z m-90 -508 c0 -45 3 -54 23 -62 16 -7 25 -23 31
-58 8 -37 14 -49 33 -53 15 -4 23 -14 23 -28 0 -37 12 -66 26 -66 8 0 14 -4
14 -10 0 -16 -57 -12 -74 6 -9 8 -16 20 -16 25 0 5 -11 9 -24 9 -24 0 -36 16
-36 50 0 10 -13 32 -30 50 -29 31 -30 35 -30 129 0 112 12 139 42 91 11 -19
18 -50 18 -83z m-20 -277 c-8 -5 -10 -10 -4 -10 6 0 34 -22 63 -50 29 -27 56
-50 62 -50 5 0 9 -6 9 -13 0 -7 16 -21 35 -30 19 -9 35 -23 35 -32 0 -9 9 -15
24 -15 39 0 77 -19 83 -40 3 -11 13 -20 23 -20 33 0 50 -12 50 -35 0 -15 8
-26 21 -30 11 -4 25 -20 31 -36 5 -16 14 -29 20 -29 16 0 34 -24 47 -63 9 -25
20 -39 37 -43 18 -5 24 -13 24 -34 0 -24 5 -29 28 -32 21 -2 28 -9 30 -30 2
-20 9 -28 23 -28 19 0 42 -37 32 -52 -5 -9 -75 -11 -97 -2 -9 3 -16 16 -16 29
0 19 -7 23 -42 28 -29 4 -50 14 -65 31 -12 14 -31 26 -43 26 -12 0 -24 9 -29
24 -10 26 -30 36 -67 36 -17 0 -30 9 -42 30 -9 16 -27 32 -39 35 -13 3 -25 16
-29 30 -3 13 -15 27 -25 30 -11 4 -27 24 -35 46 -9 21 -20 39 -26 39 -5 0 -6
5 -3 11 4 6 -2 13 -13 16 -13 3 -22 15 -24 31 -2 17 -10 28 -23 31 -27 5 -35
19 -35 64 0 30 -5 40 -24 49 -14 6 -27 17 -30 24 -8 22 14 74 32 74 15 0 15
-2 2 -10z m207 -530 c8 -22 18 -30 36 -30 38 0 58 -10 67 -36 6 -15 19 -24 37
-26 22 -2 29 -9 31 -30 3 -25 7 -27 60 -30 50 -3 57 -6 62 -28 5 -20 15 -26
60 -35 46 -8 56 -14 58 -32 3 -21 9 -23 56 -23 46 0 55 -3 74 -29 11 -16 33
-32 48 -35 41 -11 120 -97 128 -140 6 -30 11 -36 31 -36 21 0 25 -5 25 -29 0
-23 5 -30 23 -33 17 -2 23 -11 25 -35 2 -18 -1 -33 -7 -33 -25 0 -101 41 -101
55 0 12 -13 15 -59 15 -51 0 -62 4 -89 30 -21 19 -42 30 -61 30 -17 0 -31 6
-35 16 -3 8 -10 12 -16 9 -5 -3 -10 0 -10 8 0 17 -21 27 -56 27 -17 0 -27 8
-34 24 -9 24 -23 29 -100 39 -8 1 -16 14 -18 30 -3 22 -8 27 -32 27 -24 0 -29
5 -32 27 -2 19 -10 29 -28 33 -15 4 -26 15 -30 30 -4 18 -14 26 -32 28 -18 2
-28 11 -32 27 -3 13 -15 27 -26 30 -12 4 -23 18 -26 35 -4 16 -14 30 -25 33
-22 6 -39 45 -39 88 0 25 4 29 28 29 22 0 30 -7 39 -30z m358 -543 c8 -18 20
-23 63 -25 42 -2 52 -6 52 -21 0 -28 21 -41 70 -41 37 0 52 -6 78 -30 21 -19
44 -30 62 -30 43 0 81 -18 87 -40 4 -14 14 -20 32 -20 25 0 71 -31 71 -48 0
-4 16 -16 35 -26 19 -10 32 -23 29 -27 -3 -5 11 -18 30 -30 20 -12 36 -26 36
-32 0 -18 44 -77 58 -77 7 0 12 -13 12 -30 0 -25 4 -30 25 -30 20 0 25 -6 30
-37 11 -62 14 -69 40 -81 17 -8 25 -20 25 -38 0 -17 6 -28 20 -31 21 -6 40
-55 32 -86 -6 -24 -34 -18 -47 10 -5 13 -20 23 -35 25 -19 2 -26 10 -28 31 -3
22 -8 27 -30 27 -19 0 -33 9 -47 30 -15 22 -28 30 -50 30 -35 0 -55 15 -55 41
0 11 -11 20 -30 24 -23 5 -30 12 -30 31 0 20 -5 24 -29 24 -25 0 -30 4 -33 27
-2 21 -10 29 -30 33 -14 3 -36 17 -48 33 -13 16 -31 27 -45 27 -26 0 -55 24
-55 44 0 8 -13 16 -30 20 -24 4 -30 11 -30 30 0 19 -6 25 -27 28 -22 2 -29 9
-31 31 -3 23 -8 27 -33 27 -26 0 -29 3 -29 30 0 27 -3 30 -30 30 -27 0 -30 3
-30 30 0 27 -3 30 -31 30 -30 0 -31 2 -27 34 2 19 0 32 -5 29 -17 -11 -57 7
-57 26 0 36 49 34 65 -2z M5768 8069 c-15 -19 -30 -22 -130 -26 -67 -3 -117
-10 -123 -17 -24 -28 -67 -46 -109 -46 -37 0 -48 -4 -62 -25 -12 -18 -28 -26
-64 -31 -42 -6 -50 -10 -59 -35 -7 -21 -16 -29 -34 -29 -18 0 -27 -7 -31 -24
-5 -21 -15 -26 -58 -33 -48 -7 -53 -11 -56 -36 -3 -23 -8 -27 -33 -27 -26 0
-29 -3 -29 -30 0 -27 -3 -30 -29 -30 -25 0 -30 -4 -33 -27 -2 -22 -9 -29 -30
-31 -21 -3 -27 -9 -30 -30 -2 -21 -9 -28 -30 -30 -22 -3 -28 -9 -28 -28 0 -14
-13 -37 -30 -54 -16 -16 -30 -38 -30 -49 0 -34 -11 -51 -35 -51 -20 0 -23 -6
-29 -57 -7 -64 4 -86 42 -77 17 5 22 14 22 40 0 31 3 34 30 34 26 0 30 3 30
29 0 23 6 31 29 39 23 8 29 18 35 51 5 31 12 44 30 51 13 5 26 20 30 33 4 16
17 29 36 35 16 6 30 16 30 21 0 6 4 11 10 11 14 0 50 32 50 45 0 12 55 42 85
47 13 2 21 12 23 31 3 24 8 27 38 27 23 0 34 5 34 15 0 8 11 17 25 21 14 3 25
10 25 15 0 5 14 9 30 9 17 0 30 4 30 9 0 18 72 51 112 51 31 0 46 6 63 26 21
25 29 26 171 35 159 10 469 -2 516 -20 15 -5 30 -16 35 -24 4 -7 31 -17 58
-23 36 -6 53 -15 59 -30 7 -16 22 -23 50 -27 28 -4 48 -14 61 -31 12 -14 28
-26 36 -26 20 0 39 -20 39 -41 0 -12 9 -19 28 -21 21 -2 28 -9 30 -30 2 -20 9
-28 22 -28 11 0 26 -13 35 -30 11 -21 23 -30 40 -30 21 0 25 -5 25 -28 0 -17
10 -38 25 -52 13 -12 29 -38 35 -56 6 -18 20 -36 30 -39 13 -4 21 -19 26 -43
10 -61 13 -69 39 -80 22 -10 25 -18 25 -67 0 -42 4 -55 15 -55 26 0 45 -67 45
-155 0 -46 3 -85 8 -87 4 -1 15 -19 25 -39 15 -29 19 -62 20 -170 3 -199 -2
-248 -29 -298 -20 -37 -24 -58 -24 -137 0 -93 -18 -165 -46 -189 -6 -5 -14
-32 -18 -60 -5 -37 -12 -55 -31 -68 -20 -15 -25 -27 -25 -63 0 -30 -5 -46 -15
-50 -8 -4 -15 -12 -15 -20 0 -8 -4 -14 -9 -14 -10 0 -20 -23 -27 -57 -2 -12
-15 -34 -28 -48 -13 -14 -26 -43 -30 -64 -5 -31 -11 -40 -29 -43 -16 -2 -23
-11 -25 -30 -2 -16 -9 -28 -18 -28 -8 0 -14 -7 -14 -15 0 -8 -4 -15 -10 -15
-5 0 -12 -12 -16 -27 -13 -59 -15 -63 -40 -63 -20 0 -24 -5 -24 -30 0 -18 -5
-30 -13 -30 -19 0 -44 -30 -52 -63 -4 -16 -18 -35 -31 -44 -13 -8 -24 -23 -24
-32 0 -22 -19 -41 -41 -41 -10 0 -20 -11 -23 -25 -4 -15 -16 -27 -31 -31 -16
-4 -25 -14 -27 -32 -2 -21 -9 -28 -30 -30 -21 -3 -27 -9 -30 -30 -2 -20 -9
-28 -28 -30 -18 -2 -29 -12 -37 -32 -8 -20 -18 -30 -32 -30 -16 0 -21 -6 -21
-24 0 -19 -7 -26 -30 -31 -21 -5 -32 -14 -36 -31 -4 -14 -16 -27 -30 -30 -13
-3 -24 -13 -24 -21 0 -8 -15 -20 -34 -28 -18 -8 -36 -23 -39 -34 -3 -11 -18
-26 -34 -33 -15 -7 -41 -25 -56 -40 -16 -16 -37 -28 -48 -28 -14 0 -21 -9 -25
-30 -5 -25 -11 -30 -35 -30 -23 0 -29 -5 -29 -21 0 -13 -10 -23 -29 -30 -16
-6 -37 -21 -45 -34 -13 -20 -66 -42 -88 -37 -3 1 -9 -12 -13 -28 -5 -25 -12
-30 -35 -30 -24 0 -29 -5 -32 -27 -2 -22 -9 -29 -30 -31 -16 -2 -30 -11 -33
-22 -3 -10 -20 -23 -38 -29 -17 -7 -44 -25 -58 -41 -15 -16 -39 -32 -53 -36
-16 -4 -26 -13 -26 -24 0 -12 -10 -21 -29 -25 -20 -4 -31 -13 -33 -28 -2 -14
-14 -25 -33 -32 -16 -5 -41 -20 -54 -33 -13 -13 -34 -28 -48 -33 -13 -5 -21
-13 -18 -19 3 -5 -1 -10 -9 -10 -9 0 -16 -6 -16 -14 0 -7 -13 -16 -30 -19 -24
-5 -30 -12 -30 -32 0 -21 -5 -25 -30 -25 -25 0 -30 -4 -30 -25 0 -20 -6 -27
-29 -31 -22 -5 -30 -13 -35 -34 -3 -20 -12 -30 -28 -32 -14 -2 -24 -12 -28
-28 -4 -18 -13 -26 -33 -28 -22 -3 -27 -8 -27 -31 0 -19 -8 -32 -30 -44 -22
-14 -30 -26 -30 -47 0 -41 -10 -60 -30 -60 -22 0 -30 -27 -30 -112 0 -66 1
-68 25 -68 19 0 26 7 31 28 12 55 16 63 40 78 15 11 24 26 24 43 0 20 7 29 30
38 18 7 30 18 30 30 0 10 14 29 30 43 17 14 30 34 30 45 0 30 12 43 45 51 17
3 42 20 57 35 15 16 34 29 43 29 9 0 22 13 28 30 9 23 18 30 39 30 22 0 27 5
30 28 2 21 9 28 29 30 21 2 28 10 33 33 4 22 11 29 28 29 12 0 32 12 45 26 14
17 36 28 62 31 34 5 40 9 43 32 2 20 9 27 31 29 16 2 27 9 27 18 0 8 16 22 35
30 19 8 35 19 35 25 0 12 30 45 39 43 3 -1 11 0 16 2 6 1 19 4 30 6 11 2 22
14 25 28 4 18 14 26 33 28 21 3 27 9 27 27 0 25 17 35 58 35 18 0 36 10 52 30
14 17 35 30 47 30 16 0 22 7 25 28 2 21 9 28 31 30 15 2 27 9 27 15 1 28 20
42 63 46 4 1 7 8 7 16 0 14 11 19 26 13 3 -2 10 5 15 15 6 9 18 17 27 17 23 0
42 19 42 42 0 13 8 18 29 18 25 0 30 4 33 28 2 21 9 28 30 30 18 2 28 11 32
28 5 17 16 26 36 31 20 4 30 12 30 24 0 10 9 20 20 24 11 3 29 19 40 36 12 16
28 29 35 29 8 0 22 14 32 30 9 17 22 30 28 30 16 0 152 135 160 159 3 11 13
21 21 21 8 0 18 10 23 23 5 13 21 31 35 40 14 10 26 26 26 37 0 12 9 22 24 26
17 4 26 14 28 32 2 21 9 28 30 30 21 2 28 9 30 30 2 18 10 28 28 32 18 4 26
15 32 43 11 51 25 77 43 77 9 0 15 10 15 26 0 19 7 28 28 35 24 8 30 18 38 57
6 34 15 50 32 57 14 6 22 18 22 35 0 26 24 69 47 83 7 4 13 18 13 31 0 50 13
89 32 94 18 4 21 12 32 78 3 18 16 44 29 58 20 21 26 41 32 108 7 87 20 132
34 124 5 -3 12 11 16 31 9 48 9 698 0 746 -4 21 -16 44 -27 51 -16 11 -21 30
-25 96 -5 72 -8 83 -28 90 -22 8 -35 44 -35 95 0 16 -7 25 -24 29 -19 5 -25
15 -32 58 -8 44 -13 53 -34 58 -17 4 -26 14 -28 31 -2 15 -13 32 -27 39 -13 7
-27 25 -30 39 -7 30 -38 71 -54 71 -6 0 -11 4 -11 9 0 5 -8 12 -18 15 -10 4
-32 24 -48 46 -16 22 -46 46 -68 55 -21 9 -40 24 -43 35 -3 12 -14 20 -27 20
-11 0 -36 14 -55 30 -18 17 -43 30 -55 30 -28 0 -43 11 -47 35 -4 16 -13 21
-57 23 -42 2 -58 9 -83 33 -27 26 -36 29 -97 30 -37 0 -89 5 -117 10 -27 6
-65 13 -83 16 -18 3 -35 9 -38 14 -3 5 -53 9 -112 9 -97 0 -109 -2 -124 -21z
M4919 7021 c-85 -6 -119 -20 -119 -47 0 -9 -11 -14 -30 -14 -27 0 -30 -3 -30
-30 0 -27 -3 -30 -30 -30 -26 0 -30 -3 -30 -29 0 -22 -6 -30 -24 -35 -25 -6
-30 -15 -41 -78 -5 -32 -10 -38 -30 -38 -23 0 -25 -4 -25 -50 0 -49 -19 -130
-31 -130 -8 0 -29 72 -29 99 0 17 -6 21 -30 21 -23 0 -30 -5 -30 -19 0 -11 -6
-26 -14 -33 -7 -8 -17 -24 -20 -36 -4 -12 -11 -22 -16 -22 -5 0 -11 -44 -12
-97 l-3 -98 -27 -3 -28 -3 0 80 c0 81 -12 111 -46 111 -9 0 -14 11 -14 30 0
27 -3 30 -30 30 -29 0 -30 -2 -30 -44 0 -45 18 -76 44 -76 9 0 15 -25 19 -81
3 -45 10 -85 16 -88 20 -13 41 -81 41 -136 0 -56 0 -56 -27 -53 -22 2 -29 9
-31 31 -2 16 -10 31 -18 34 -8 3 -14 9 -14 14 0 11 -9 23 -60 78 -19 21 -42
48 -50 60 -8 11 -20 21 -27 21 -26 0 -66 69 -72 128 -4 41 -10 57 -21 57 -8 1
-14 6 -13 13 2 7 -1 12 -7 12 -5 0 -12 16 -15 35 -3 19 -7 50 -10 69 -4 22
-13 37 -25 41 -10 3 -22 19 -25 35 -4 17 -12 30 -20 30 -17 0 -47 65 -43 93 3
21 8 22 115 25 l112 3 31 -31 c20 -20 41 -30 61 -30 22 0 32 -6 41 -24 7 -16
28 -31 59 -42 44 -16 49 -21 56 -57 9 -46 38 -71 53 -47 5 8 10 36 10 61 0 39
-4 49 -25 63 -14 9 -25 23 -25 31 0 7 -13 22 -30 32 -16 9 -30 23 -30 29 0 7
-14 15 -31 19 -18 4 -34 16 -39 29 -7 20 -18 24 -87 31 -93 10 -161 10 -310 0
l-112 -8 -16 -34 c-22 -46 -13 -83 20 -83 16 0 25 -6 25 -15 0 -8 5 -15 10
-15 19 0 50 -40 50 -65 0 -18 5 -25 20 -25 24 0 40 -35 40 -86 0 -27 4 -34 20
-34 13 0 22 -9 26 -27 3 -16 8 -35 10 -44 3 -9 2 -24 -2 -33 -5 -14 -28 -16
-175 -16 -156 0 -171 -2 -189 -20 -11 -11 -27 -20 -35 -20 -8 0 -15 -4 -15
-10 0 -5 -13 -10 -29 -10 -44 0 -82 -18 -88 -40 -4 -14 -14 -20 -34 -20 -22 0
-30 -6 -35 -24 -3 -15 -14 -26 -27 -28 -14 -2 -24 -14 -29 -35 -7 -26 -14 -33
-32 -33 -18 0 -25 -7 -29 -30 -5 -24 -12 -30 -32 -30 -24 0 -25 -3 -25 -59 l0
-60 231 -3 230 -3 18 -24 c17 -22 29 -25 127 -32 60 -4 110 -8 112 -8 1 -1 2
-12 2 -26 0 -16 -6 -25 -15 -25 -8 0 -15 -7 -15 -16 0 -8 -4 -13 -9 -9 -5 3
-12 -4 -16 -15 -4 -14 -15 -20 -36 -20 -28 0 -29 -2 -29 -44 0 -57 -8 -76 -30
-76 -26 0 -27 -3 -35 -100 -14 -152 -3 -338 21 -347 8 -3 11 -9 8 -15 -3 -5 3
-12 15 -15 17 -4 21 -13 21 -42 0 -44 30 -81 64 -81 31 0 47 -20 53 -70 5 -34
9 -40 29 -40 19 0 26 9 40 55 10 30 23 55 30 55 16 0 24 24 24 75 0 40 2 44
28 47 21 2 28 9 30 31 3 21 9 27 28 27 19 0 26 6 31 30 4 25 10 30 34 30 26 0
29 4 29 30 0 27 3 30 30 30 18 0 30 5 30 13 0 8 9 22 20 32 11 10 20 14 20 9
0 -5 11 4 25 19 14 15 30 27 34 27 5 0 16 16 26 36 19 41 35 40 47 -2 11 -36
-1 -308 -13 -312 -5 -2 -9 -12 -9 -22 0 -9 -7 -23 -15 -30 -10 -8 -15 -30 -15
-62 0 -50 -22 -107 -46 -121 -8 -4 -14 -24 -14 -45 0 -55 -10 -82 -30 -82 -22
0 -30 -19 -30 -69 0 -50 -18 -99 -40 -111 -14 -7 -18 -26 -22 -87 -4 -67 -8
-82 -31 -107 -25 -27 -27 -35 -27 -118 0 -114 -18 -228 -36 -228 -25 0 -21
-92 7 -188 11 -37 23 -116 26 -175 4 -79 10 -110 20 -114 22 -9 36 -44 42
-108 5 -49 10 -62 28 -70 24 -10 33 -32 33 -87 0 -30 4 -37 22 -40 19 -2 24
-13 33 -58 10 -54 11 -55 48 -58 27 -2 37 -8 37 -20 0 -15 2 -15 10 -2 5 8 10
11 10 5 0 -5 5 -3 10 5 15 23 12 60 -5 67 -22 8 -45 68 -45 114 0 35 -5 43
-45 77 -10 8 -15 30 -15 65 0 29 -7 65 -15 81 -8 15 -15 38 -15 50 0 12 -5 27
-12 34 -15 15 -15 147 1 194 7 20 18 39 26 42 8 3 15 16 15 29 0 31 26 83 45
91 9 3 15 18 15 35 0 22 5 30 25 35 15 4 27 16 31 31 3 14 13 25 23 25 20 0
41 19 41 37 0 20 69 83 91 83 14 0 21 9 26 30 4 25 10 30 33 30 24 0 37 7 87
50 7 5 23 10 36 10 14 0 32 10 43 24 10 14 21 23 25 20 4 -2 10 0 14 6 3 5 23
10 43 10 55 0 82 10 82 30 0 18 36 30 91 30 15 0 32 6 36 13 18 29 63 47 117
47 48 0 54 2 60 24 6 23 37 36 88 36 11 0 37 13 57 29 20 16 48 31 61 33 19 2
26 10 28 31 3 22 8 27 32 27 24 0 29 5 32 28 2 21 9 28 31 30 22 3 27 8 27 30
0 21 7 30 30 39 20 8 30 18 30 32 0 12 6 21 15 21 8 0 15 6 15 14 0 8 5 16 11
18 7 2 7 12 0 31 -10 25 -31 38 -31 18 0 -5 -29 -12 -64 -16 -56 -6 -65 -9
-68 -28 -3 -19 -13 -24 -83 -35 -44 -7 -82 -18 -83 -23 -12 -32 -36 -39 -127
-39 -89 0 -96 -1 -119 -26 -21 -24 -33 -27 -103 -31 -120 -6 -143 -11 -143
-32 0 -22 -26 -31 -92 -31 -60 0 -77 -7 -89 -36 -6 -19 -16 -24 -42 -24 -24 0
-39 -8 -57 -30 -16 -19 -35 -29 -52 -30 -22 0 -27 -5 -30 -27 -2 -22 -9 -29
-30 -31 -20 -2 -28 -9 -28 -24 0 -13 -10 -24 -28 -30 -17 -7 -33 -23 -40 -40
-6 -18 -17 -28 -30 -28 -13 0 -22 -9 -26 -25 -4 -14 -17 -30 -31 -35 -20 -8
-24 -17 -27 -61 -3 -48 -6 -53 -30 -60 l-28 -7 0 88 c0 72 4 96 21 124 12 20
25 36 30 36 5 0 9 26 10 58 1 76 10 105 37 117 18 8 22 18 22 56 0 35 7 56 30
87 17 23 30 51 30 63 0 11 9 32 20 46 11 14 17 29 14 34 -3 5 2 12 10 15 10 4
16 18 16 39 0 56 19 138 38 158 14 16 18 45 22 162 4 101 10 147 20 159 13 16
15 16 26 -6 8 -13 13 -30 14 -39 0 -10 24 -32 52 -50 29 -19 61 -42 70 -51 10
-10 25 -18 33 -18 8 0 17 -11 21 -25 5 -19 13 -25 34 -25 24 0 29 -5 32 -27 2
-18 10 -29 23 -32 23 -4 35 -18 35 -42 0 -9 13 -31 30 -48 27 -30 29 -37 28
-110 0 -43 2 -84 6 -90 4 -6 31 -11 60 -11 53 0 54 0 60 35 4 19 18 48 31 64
14 16 25 38 25 50 0 11 10 26 23 32 32 18 37 28 37 92 0 56 16 101 48 135 8 9
12 50 12 127 0 108 -1 113 -24 129 -18 11 -27 28 -32 63 -4 32 -14 55 -30 69
-13 12 -20 24 -17 28 4 4 1 11 -6 15 -8 5 -11 17 -7 28 8 27 48 33 207 33 125
0 126 0 158 -29 21 -19 47 -31 70 -33 31 -3 36 -7 39 -29 2 -21 10 -28 33 -33
23 -4 29 -11 29 -31 0 -21 5 -25 30 -25 25 0 30 4 30 24 0 13 7 29 15 36 19
16 19 82 0 135 -8 22 -14 68 -15 103 0 59 -1 62 -25 62 -20 0 -25 6 -30 38
-11 63 -14 68 -54 85 -22 10 -46 29 -55 42 -9 14 -25 25 -36 25 -12 0 -25 10
-32 25 -8 18 -19 25 -39 25 -18 0 -35 9 -49 28 -22 27 -22 27 -178 32 -153 5
-157 6 -160 27 -2 14 6 32 22 46 25 23 30 38 40 116 5 34 19 51 44 51 7 0 12
13 12 30 0 18 6 33 15 36 8 4 13 10 10 14 -3 5 4 11 15 15 11 3 22 16 26 29 6
25 36 47 79 56 29 5 30 8 33 62 l3 56 -56 7 c-47 5 -58 11 -65 31 -9 23 -14
24 -92 24 -46 0 -92 2 -103 4 -11 2 -59 0 -106 -3z m123 -75 c18 -8 52 -23 76
-32 35 -15 42 -22 42 -46 0 -24 -4 -28 -30 -28 -25 0 -30 -4 -30 -25 0 -14
-13 -38 -30 -55 -20 -20 -30 -41 -30 -60 0 -19 -10 -40 -30 -60 -21 -21 -30
-41 -30 -63 0 -20 -8 -39 -20 -50 -11 -9 -20 -24 -20 -32 0 -8 -4 -15 -8 -15
-5 0 -13 -24 -18 -52 -6 -36 -14 -53 -24 -53 -11 0 -16 13 -17 49 -1 27 -7 54
-12 59 -5 5 -34 6 -65 2 -51 -7 -56 -9 -56 -32 0 -15 -14 -39 -35 -60 -19 -19
-35 -44 -35 -54 0 -10 -2 -19 -4 -19 -2 0 -11 -3 -20 -6 -13 -5 -16 1 -16 29
0 48 9 67 31 67 14 0 19 7 19 26 0 16 12 37 30 54 24 22 30 36 30 70 l0 42
-42 -2 c-66 -3 -68 -2 -68 30 0 25 4 30 23 30 20 0 25 7 33 53 6 38 15 54 30
61 11 5 26 22 32 38 6 18 17 28 30 28 14 0 22 8 24 22 2 17 15 26 56 38 29 8
57 21 62 29 5 8 21 16 37 19 15 2 30 5 32 8 7 7 19 5 53 -10z m-484 -523 c3
-54 1 -62 -17 -68 -33 -10 -41 2 -41 64 0 64 5 73 35 69 17 -3 20 -11 23 -65z
m-630 -69 c26 -4 32 -9 32 -29 0 -21 5 -25 30 -25 27 0 30 -3 30 -30 0 -27 3
-30 30 -30 25 0 30 -4 30 -24 0 -26 -14 -36 -42 -28 -11 3 -18 14 -18 28 0 21
-5 24 -39 24 -62 0 -99 11 -125 37 -22 22 -31 24 -108 21 -81 -3 -83 -4 -83
-28 0 -20 6 -26 28 -28 15 -2 27 -7 27 -12 0 -19 67 -44 134 -51 58 -5 74 -11
92 -33 13 -14 33 -26 44 -26 12 0 33 -13 48 -30 15 -16 42 -33 60 -36 41 -8
41 -29 1 -43 -57 -20 -139 -11 -139 15 0 19 -31 30 -111 38 -48 5 -73 14 -90
29 -13 12 -26 21 -29 21 -3 -1 -9 0 -15 2 -5 1 -55 5 -110 7 -92 5 -155 21
-155 40 0 4 -29 7 -63 6 -70 -2 -87 3 -87 30 0 22 19 41 42 41 12 0 18 8 18
24 0 26 21 36 83 36 33 0 37 3 37 25 0 29 14 34 120 37 93 4 284 -1 328 -8z
m932 -12 c0 -26 -20 -42 -51 -42 -15 0 -29 -6 -32 -12 -6 -18 -16 -6 -19 22
-3 27 30 50 75 50 19 0 27 -5 27 -18z m407 -21 c13 -14 35 -21 73 -23 51 -3
55 -5 58 -30 2 -21 9 -28 30 -30 18 -2 28 -10 32 -28 4 -18 13 -26 33 -28 22
-3 27 -8 27 -33 0 -25 4 -29 29 -29 29 0 29 -1 33 -60 l3 -60 -58 0 c-39 0
-64 5 -73 15 -9 8 -24 15 -35 15 -11 0 -29 5 -40 10 -11 6 -25 7 -32 3 -6 -4
-41 -8 -77 -8 -43 0 -78 -6 -102 -19 -33 -16 -58 -18 -198 -15 -125 3 -163 7
-169 18 -14 23 -1 41 30 41 19 0 32 7 40 23 17 32 28 37 90 37 57 0 79 12 79
42 0 19 -1 19 147 22 75 1 108 15 86 37 -11 11 -72 15 -128 11 -11 -1 -37 1
-58 4 -30 5 -41 2 -51 -12 -8 -10 -11 -24 -9 -31 3 -8 2 -13 -3 -12 -5 1 -44
1 -86 0 l-78 -1 0 -30 c0 -27 -3 -30 -31 -30 -27 0 -30 3 -27 28 2 21 9 28 31
30 21 3 27 9 27 27 0 19 7 25 33 30 18 4 47 19 63 34 28 26 36 28 143 33 91 5
116 9 123 22 12 21 23 20 45 -3z m-535 -102 c-3 -30 -17 -43 -36 -36 -21 8
-20 44 2 56 25 15 37 7 34 -20z m-549 -298 c17 -2 5 -30 -15 -36 -13 -4 -33
-18 -45 -32 -14 -16 -37 -27 -62 -30 -35 -5 -41 -9 -41 -30 0 -18 -7 -25 -30
-29 -25 -5 -30 -11 -30 -34 0 -23 -5 -29 -30 -33 -28 -6 -30 -9 -30 -56 0 -41
4 -51 20 -56 27 -8 40 1 40 30 0 18 6 24 28 27 21 2 28 9 30 30 3 21 9 27 30
30 21 2 28 9 30 31 3 24 7 27 42 27 52 0 70 8 81 36 8 22 14 24 77 24 79 0
115 -17 93 -44 -7 -9 -22 -16 -32 -16 -14 0 -19 -7 -19 -30 0 -27 -3 -30 -29
-30 -25 0 -30 -4 -33 -27 -2 -22 -9 -29 -30 -31 -22 -3 -28 -9 -28 -27 0 -22
-17 -35 -45 -35 -8 0 -25 -10 -38 -22 -52 -49 -104 -93 -122 -104 -10 -6 -23
-19 -29 -29 -6 -10 -23 -29 -37 -42 -16 -14 -29 -37 -33 -61 -5 -37 -8 -40
-48 -45 -56 -8 -68 4 -68 69 0 47 -2 53 -22 56 -28 4 -35 32 -37 146 -1 79 0
85 29 115 20 22 30 42 30 65 0 24 4 32 18 32 23 0 42 19 42 41 0 11 9 19 22
21 13 2 29 15 36 31 12 25 18 27 70 27 45 0 65 5 92 25 34 24 40 24 123 16z
m686 -38 c105 -5 109 -6 113 -34 2 -15 12 -25 28 -29 18 -4 26 -14 28 -32 2
-16 11 -28 22 -31 32 -8 40 -51 39 -210 -1 -175 -6 -201 -37 -205 -17 -3 -22
-10 -22 -32 0 -31 -25 -47 -46 -29 -8 6 -14 22 -14 35 0 16 -7 24 -22 26 -15
2 -25 15 -36 46 -10 30 -19 42 -33 42 -10 0 -19 7 -19 15 0 9 -11 20 -24 25
-14 5 -30 18 -35 29 -6 11 -23 21 -38 23 -22 2 -29 9 -31 31 -3 23 -8 27 -33
27 -25 0 -29 4 -29 29 0 25 -4 30 -27 33 -22 2 -29 9 -31 30 -3 21 -9 27 -30
30 -25 3 -27 7 -30 50 -3 52 -6 49 76 76 29 9 33 8 44 -11 6 -12 10 -24 8 -27
-7 -10 45 -30 78 -30 29 0 32 -3 32 -30 0 -27 3 -30 30 -30 27 0 30 -3 30 -30
0 -27 3 -30 30 -30 27 0 30 -3 30 -33 0 -44 29 -76 74 -84 34 -5 36 -4 36 21
0 14 -3 25 -7 24 -22 -4 -43 17 -43 42 0 43 -18 81 -40 87 -11 3 -20 15 -22
32 -2 20 -9 27 -30 29 -24 3 -28 8 -28 33 0 25 -4 29 -29 29 -31 0 -65 25 -56
41 4 5 -1 9 -9 9 -9 0 -16 4 -16 8 0 14 12 22 23 15 5 -3 48 -8 96 -10z m469
-990 c-2 -23 -9 -29 -38 -33 -19 -3 -33 -8 -30 -13 10 -15 -55 -47 -97 -47
-54 0 -73 -8 -73 -30 0 -19 -36 -30 -101 -30 -38 0 -79 -26 -79 -50 0 -6 -28
-10 -65 -10 -37 0 -65 -4 -65 -10 0 -18 -64 -50 -102 -50 -38 0 -68 -20 -68
-46 0 -9 -11 -14 -30 -14 -20 0 -30 -5 -30 -16 0 -29 -103 -58 -113 -31 -7 19
12 47 33 47 13 0 20 8 22 28 2 20 9 28 28 30 15 2 30 12 35 25 7 15 26 26 62
36 40 10 53 19 55 35 3 18 11 21 60 24 49 3 57 6 60 25 4 26 31 35 115 36 41
1 65 6 70 15 17 28 71 46 143 46 44 0 69 4 65 10 -3 6 1 7 9 4 9 -3 23 1 31
10 9 9 23 16 31 16 8 0 14 5 14 10 0 6 14 10 31 10 27 0 30 -3 27 -27z M2632
3374 c-6 -33 -14 -76 -17 -96 -4 -24 -11 -38 -20 -38 -13 0 -15 -30 -15 -187
0 -237 -6 -293 -31 -293 -14 0 -19 -7 -19 -26 0 -21 4 -25 23 -22 14 2 23 11
25 26 2 15 10 22 27 22 12 0 26 7 29 16 3 9 6 117 6 240 0 190 2 224 15 224
17 0 37 -33 34 -58 -4 -41 2 -61 20 -67 25 -8 41 -55 41 -121 0 -45 3 -54 18
-54 18 0 52 -77 52 -118 0 -28 30 -36 79 -21 l39 12 7 68 c5 46 11 69 20 69
20 0 35 56 35 131 0 37 3 74 6 83 10 25 33 19 47 -11 6 -16 17 -34 24 -41 7
-7 13 -21 13 -31 0 -10 3 -21 7 -25 10 -10 11 -24 19 -194 6 -136 9 -154 26
-163 10 -6 23 -21 28 -35 7 -18 17 -24 38 -24 27 0 30 3 36 46 9 69 -5 314
-18 314 -20 0 -35 82 -39 218 -3 120 -6 134 -25 153 -12 11 -22 26 -22 33 0
14 -41 24 -72 18 -10 -2 -18 -10 -18 -18 0 -8 -10 -24 -21 -35 -16 -16 -24
-40 -28 -85 -6 -52 -12 -67 -34 -86 -25 -22 -27 -28 -27 -111 l0 -87 -30 0
c-27 0 -30 3 -30 30 0 23 -4 30 -20 30 -22 0 -26 12 -35 113 -5 47 -11 67 -20
67 -22 0 -33 30 -41 104 -4 37 -10 68 -13 71 -4 2 -30 7 -57 10 l-51 7 -11
-58z M5579 3393 c-4 -192 5 -721 12 -735 6 -12 21 -18 42 -18 63 0 62 -7 67
292 3 150 3 323 0 383 l-5 110 -57 3 -58 3 -1 -38z M4799 3358 c-2 -53 -1
-559 1 -680 l0 -38 178 0 c140 1 181 4 196 15 20 15 20 15 0 30 -14 10 -47 14
-119 15 -55 0 -107 5 -115 10 -13 8 -15 58 -18 337 -1 180 -4 338 -7 351 -5
19 -12 22 -60 22 l-55 0 -1 -62z M5340 3303 c0 -32 4 -64 9 -72 6 -10 5 -22
-5 -35 -11 -16 -14 -66 -13 -246 0 -274 4 -304 41 -308 19 -2 28 2 32 16 4 10
18 24 31 30 l25 12 0 231 0 231 -29 11 c-40 15 -53 39 -38 71 7 14 16 26 20
26 5 0 5 5 2 10 -3 6 6 14 20 20 17 6 25 16 23 27 -4 23 -23 31 -75 32 l-43 1
0 -57z M5836 3345 c-18 -19 -11 -42 15 -50 10 -4 22 -18 25 -31 5 -20 12 -24
33 -22 21 2 27 9 31 38 10 67 3 80 -45 80 -26 0 -50 -6 -59 -15z M3480 3225
c0 -19 -51 -45 -88 -45 -27 0 -30 -3 -33 -37 -7 -67 -1 -83 30 -83 24 0 30 5
35 30 5 28 8 30 55 30 27 0 61 -4 75 -10 24 -9 25 -11 19 -75 -5 -51 -3 -69 9
-83 12 -12 16 -40 16 -104 0 -49 -4 -88 -8 -88 -4 0 -13 -13 -19 -30 -8 -26
-15 -30 -46 -30 -28 0 -38 5 -47 25 -6 13 -19 27 -30 30 -17 6 -21 18 -21 70
0 44 3 50 26 60 12 6 23 20 25 33 3 17 10 22 32 22 27 0 40 15 40 46 0 11 -15
14 -64 14 -59 0 -65 -2 -68 -22 -2 -15 -13 -24 -36 -30 -21 -6 -36 -17 -42
-34 -5 -13 -17 -27 -25 -30 -11 -5 -15 -22 -15 -68 0 -50 4 -63 20 -74 11 -7
20 -19 20 -27 0 -8 4 -15 9 -15 5 0 11 -12 13 -27 l3 -28 162 -3 c137 -2 164
0 177 13 18 18 21 77 16 319 -2 133 -4 142 -28 172 -16 20 -38 35 -59 39 -27
5 -33 11 -33 30 0 24 -3 25 -60 25 -46 0 -60 -3 -60 -15z M3979 3210 c-29 -29
-36 -31 -74 -26 -23 4 -61 4 -84 0 l-41 -7 2 -251 c3 -242 4 -251 23 -254 11
-3 24 -10 28 -18 9 -16 53 -19 62 -4 3 5 8 97 10 204 2 107 8 202 14 213 5 10
12 26 15 36 4 14 17 17 76 17 68 0 70 -1 70 -25 0 -13 6 -28 13 -32 32 -20 48
-185 28 -290 -6 -30 -4 -50 5 -69 8 -14 14 -35 14 -45 0 -14 7 -19 29 -19 26
0 29 3 35 46 8 60 8 457 0 478 -3 9 -16 16 -27 16 -12 0 -32 12 -44 26 -17 21
-35 28 -72 32 -46 4 -53 2 -82 -28z M4440 3220 c0 -22 -27 -40 -60 -40 -31 0
-59 -39 -60 -82 0 -35 2 -38 29 -38 20 0 30 6 34 20 6 25 45 40 102 40 54 0
76 -19 71 -63 -2 -18 -4 -38 -5 -44 -1 -9 -25 -13 -86 -13 -83 0 -85 0 -85
-24 0 -19 -7 -26 -29 -31 -24 -5 -31 -14 -46 -65 -10 -35 -24 -60 -32 -60 -8
0 -13 -12 -13 -30 0 -21 5 -30 16 -30 9 0 22 -17 31 -40 9 -22 22 -40 29 -40
8 0 19 -9 26 -20 12 -19 24 -20 164 -20 l151 0 7 46 c8 60 8 339 -1 427 -6 66
-6 67 -34 67 -16 0 -29 4 -29 9 0 5 -13 12 -30 16 -16 4 -30 13 -30 21 0 10
-15 14 -60 14 -53 0 -60 -2 -60 -20z m120 -378 c0 -112 -13 -142 -60 -142 -43
0 -60 10 -60 35 0 17 -7 25 -22 27 -21 3 -23 9 -23 58 0 49 2 55 23 58 17 3
22 10 22 33 0 29 0 29 60 29 l60 0 0 -98z M6222 3233 c-13 -2 -28 -15 -34 -29
-8 -17 -19 -24 -38 -24 -22 0 -29 -6 -33 -29 -4 -21 -13 -30 -29 -33 -26 -3
-37 -36 -16 -49 7 -5 32 -9 56 -9 40 0 43 2 49 31 l6 31 74 -4 c86 -6 100 -14
85 -55 -6 -20 -6 -47 1 -84 12 -67 10 -180 -4 -236 l-12 -43 -56 7 c-30 3 -62
12 -69 20 -7 7 -10 13 -6 13 5 0 3 5 -4 12 -16 16 -16 115 1 125 7 4 23 21 36
38 12 16 32 36 45 45 27 19 28 45 1 44 -11 -1 -39 -2 -63 -2 -34 -2 -50 -9
-73 -31 -16 -16 -39 -31 -52 -33 -18 -2 -23 -12 -30 -57 -5 -30 -6 -82 -2
-117 6 -55 9 -63 31 -68 14 -4 26 -16 30 -31 l6 -25 149 0 150 0 29 30 30 31
0 180 c0 153 -3 185 -17 210 -10 16 -21 29 -25 29 -4 0 -8 9 -8 19 0 35 -12
51 -36 51 -16 0 -27 8 -33 23 -8 20 -16 24 -63 24 -29 0 -63 -1 -76 -4z M5865
3183 c-40 -10 -43 -21 -43 -143 0 -66 3 -120 7 -120 4 0 4 -21 0 -47 -4 -27
-8 -76 -8 -109 -1 -58 1 -62 24 -68 15 -4 27 -16 31 -31 5 -19 13 -25 34 -25
25 0 28 4 34 46 9 66 8 494 -1 495 -5 0 -19 2 -33 4 -14 1 -34 0 -45 -2z
M5284 2378 c-9 -29 -22 -38 -57 -38 -17 0 -30 -7 -34 -17 -4 -10 -13 -23 -20
-28 -10 -7 -13 -28 -11 -70 3 -54 5 -60 26 -63 13 -2 28 -14 34 -28 10 -22 57
-43 98 -44 47 -1 69 -69 29 -90 -30 -17 -63 -9 -67 17 -4 27 -18 32 -75 26
-44 -5 -47 -8 -47 -34 0 -16 4 -29 10 -29 5 0 16 -13 25 -29 14 -27 20 -30 89
-36 42 -4 97 -3 123 1 l48 9 9 52 c5 28 5 80 2 116 l-7 64 -57 9 c-48 8 -57
12 -60 32 -3 16 -10 22 -28 22 -29 0 -41 24 -23 46 14 17 74 13 116 -8 35 -17
53 -4 53 42 0 24 -5 42 -12 44 -7 3 -34 10 -60 17 -27 7 -48 19 -48 26 0 23
-48 15 -56 -9z M6270 2359 c0 -6 -4 -7 -10 -4 -5 3 -12 -7 -16 -22 -3 -15 -7
-34 -10 -40 -2 -9 -23 -13 -59 -13 -44 0 -55 -3 -55 -16 0 -9 -13 -21 -29 -27
-22 -8 -31 -19 -36 -44 -5 -27 -11 -33 -30 -33 -21 0 -25 5 -25 29 0 39 -9 43
-70 35 l-50 -7 0 -92 c0 -78 -3 -97 -20 -116 -17 -21 -21 -22 -30 -9 -5 8 -10
23 -10 32 0 9 -7 24 -17 33 -13 14 -14 18 -3 25 17 11 17 63 0 94 -7 14 -25
30 -41 36 -31 13 -79 6 -79 -11 0 -6 -7 -4 -15 5 -8 8 -15 23 -15 34 0 27 -18
39 -71 47 -52 8 -63 -1 -73 -55 -9 -50 -8 -72 3 -79 6 -4 12 -56 13 -116 l3
-110 33 -11 c18 -6 46 -8 62 -6 l28 4 -5 117 c-5 106 -4 118 12 125 36 13 47
-12 43 -101 -4 -76 -3 -82 16 -85 11 -2 26 -14 32 -27 17 -34 32 -41 94 -41
76 0 99 8 106 36 4 15 16 27 33 31 14 3 31 13 38 22 11 14 12 14 13 -1 0 -10
7 -18 15 -18 10 0 15 -10 15 -30 l0 -30 120 0 119 0 16 30 c17 33 42 31 47 -3
3 -19 10 -22 61 -25 l57 -3 0 31 c0 27 3 30 30 30 26 0 30 -3 30 -29 0 -27 3
-29 49 -35 27 -3 81 -3 120 0 70 7 71 7 71 35 0 21 5 29 18 29 33 0 42 22 42
101 0 72 -1 78 -22 81 -14 2 -24 12 -28 28 -4 17 -16 27 -38 34 -24 7 -32 15
-32 32 0 23 -4 24 -60 24 -48 0 -60 -3 -60 -16 0 -8 -15 -21 -34 -29 -22 -9
-36 -23 -40 -40 -4 -14 -11 -25 -16 -25 -16 0 -52 92 -40 104 16 16 12 44 -7
54 -10 5 -42 10 -70 11 -29 0 -69 7 -88 15 -20 9 -35 11 -35 5z m-36 -215 c11
-29 6 -95 -9 -124 -13 -24 -22 -30 -49 -30 -31 0 -36 4 -46 36 -16 47 -5 121
18 127 40 11 80 7 86 -9z m470 10 c19 -7 22 -84 5 -133 -24 -70 -109 -19 -109
66 0 21 4 43 8 49 12 19 67 29 96 18z M2216 2338 c-2 -7 -7 -22 -11 -33 -4
-11 -10 -60 -12 -110 -2 -49 -8 -94 -14 -100 -12 -12 -12 -52 1 -60 6 -3 10
-15 10 -26 0 -10 4 -27 9 -37 5 -9 12 -25 15 -34 4 -12 16 -18 36 -18 l30 0 0
78 c0 98 9 152 25 152 15 0 35 -51 35 -86 0 -23 4 -24 60 -24 60 0 60 0 60 29
0 18 6 31 17 35 30 12 43 -21 43 -106 l0 -78 35 0 c27 0 44 8 71 35 29 29 38
33 54 25 11 -6 20 -21 20 -34 0 -22 5 -24 69 -28 38 -3 92 -3 120 0 48 4 51 6
51 33 0 16 5 29 10 29 21 0 49 41 52 77 2 30 7 39 25 41 19 3 22 -3 28 -52 6
-44 14 -63 40 -91 42 -44 85 -49 85 -10 0 14 7 28 15 31 8 4 15 12 15 19 0 7
7 15 15 19 9 3 15 20 16 43 1 56 13 87 32 91 13 3 17 -4 17 -30 0 -18 3 -57 6
-85 6 -47 9 -53 31 -53 18 0 25 -7 29 -29 5 -25 12 -29 49 -34 41 -6 154 0
183 8 8 3 12 29 12 85 0 44 5 89 12 99 9 14 8 29 -2 64 -10 38 -17 46 -39 49
-20 2 -27 9 -29 31 -3 26 -5 27 -63 27 -44 0 -61 -4 -65 -15 -4 -8 -12 -15
-20 -15 -8 0 -27 -14 -43 -31 -32 -33 -39 -29 -51 25 -4 25 -11 31 -30 31 -20
0 -26 -6 -28 -27 -3 -24 -8 -28 -33 -28 -28 0 -29 -2 -29 -44 0 -57 -8 -76
-30 -76 -22 0 -30 19 -30 76 0 42 -1 44 -29 44 -23 0 -30 5 -33 23 -2 14 -11
23 -25 25 -17 3 -24 -3 -29 -25 -13 -59 -21 -78 -35 -78 -8 0 -15 11 -17 23
-3 16 -15 28 -38 38 -22 9 -34 21 -34 34 0 18 -7 20 -59 20 -54 0 -60 -2 -63
-22 -2 -16 -11 -24 -29 -26 -22 -3 -28 -10 -33 -38 -6 -28 -11 -34 -31 -34
-25 0 -25 1 -25 89 l0 88 -46 7 c-70 9 -73 8 -82 -26 -6 -23 -15 -34 -30 -36
-16 -3 -22 -10 -22 -28 0 -14 -5 -34 -10 -45 -12 -22 -50 -26 -50 -5 0 9 -12
16 -27 18 -21 2 -29 9 -31 28 -2 15 -12 30 -25 35 -12 6 -24 21 -27 35 -4 19
-13 26 -38 28 -20 2 -34 -2 -36 -10z m654 -193 c16 -19 9 -117 -9 -139 -15
-18 -76 -22 -86 -5 -14 22 -18 128 -5 144 16 20 84 20 100 0z m651 -122 c6 -6
-7 -16 -32 -27 -37 -17 -43 -17 -56 -3 -9 9 -13 23 -9 32 5 13 15 16 47 12 22
-2 45 -9 50 -14z M4857 2292 c-15 -9 -27 -27 -29 -42 -3 -22 -8 -25 -44 -28
-37 -3 -42 0 -48 21 -10 43 -104 53 -129 13 -9 -13 -22 -24 -29 -23 -7 0 -27
-1 -45 -1 -32 -2 -34 -5 -47 -64 -9 -39 -23 -35 -37 12 -9 29 -19 42 -40 49
-19 7 -29 17 -29 30 0 19 -6 21 -60 21 -48 0 -60 -3 -60 -16 0 -9 -13 -21 -30
-27 -20 -8 -33 -22 -41 -44 -6 -18 -17 -33 -24 -33 -15 0 -85 65 -85 78 0 13
-62 42 -90 42 -22 0 -29 -5 -32 -22 -3 -21 -9 -23 -58 -23 -49 0 -55 2 -58 23
-4 26 -45 30 -76 7 -11 -8 -35 -15 -53 -15 -21 0 -40 -8 -53 -22 -20 -22 -21
-30 -14 -133 4 -60 8 -117 10 -125 1 -8 3 -23 3 -32 1 -13 9 -18 30 -18 28 0
29 2 34 58 3 31 6 82 6 111 1 62 10 72 61 69 32 -3 35 -6 37 -38 2 -19 6 -72
9 -117 l6 -83 31 0 c65 0 77 9 77 52 0 21 -7 52 -15 68 -14 27 -12 52 7 75 5
6 14 18 22 29 9 13 19 16 34 12 20 -7 22 -15 24 -119 l3 -112 58 -3 57 -3 0
31 c0 27 3 30 30 30 26 0 30 -3 30 -29 0 -26 4 -29 38 -33 20 -3 74 -3 120 0
l82 5 0 84 c0 64 4 88 16 100 23 24 31 5 39 -99 l7 -89 31 3 c38 4 48 32 51
135 1 80 18 105 66 100 25 -2 25 -3 30 -117 l5 -115 34 -3 c19 -2 44 -1 57 2
23 6 24 9 24 121 l0 115 25 0 c30 0 40 -30 31 -94 -4 -24 -4 -67 0 -95 l7 -51
58 0 59 0 0 35 c0 23 -5 35 -13 35 -14 0 -32 47 -41 105 -5 37 9 65 33 65 23
0 31 27 24 80 -5 33 -10 40 -27 40 -12 0 -27 5 -34 12 -18 18 -36 18 -65 0z
m-477 -276 c0 -26 -16 -36 -60 -36 -33 0 -62 24 -54 45 4 11 22 15 60 15 50 0
54 -2 54 -24z"/>
</g>
</svg>
